<svg xmlns="http://www.w3.org/2000/svg" viewBox="0 0 24 24" role="img" aria-label="Facebook">
  <path fill="#1877F2" d="M24 12.073C24 5.405 18.627 0 12 0S0 5.405 0 12.073c0 6.025 4.388 11.02 10.125 11.927v-8.437H7.078v-3.49h3.047V9.414c0-3.025 1.792-4.697 4.533-4.697 1.312 0 2.686.236 2.686.236v2.97H15.83c-1.491 0-1.956.931-1.956 1.886v2.264h3.328l-.532 3.49h-2.796V24C19.612 23.093 24 18.098 24 12.073Z"/>
  <path fill="#fff" d="m16.671 15.563.532-3.49h-3.328V9.809c0-.955.465-1.886 1.956-1.886h1.513v-2.97s-1.374-.236-2.686-.236c-2.741 0-4.533 1.672-4.533 4.697v2.659H7.078v3.49h3.047V24a12.15 12.15 0 0 0 3.75 0v-8.437h2.796Z"/>
</svg>
