<svg xmlns="http://www.w3.org/2000/svg" viewBox="0 0 64 64" fill="none" aria-hidden="true">
  <g stroke-linecap="round" stroke-linejoin="round">
    <path d="M8 23 32 7l24 16" stroke="#2f6f24" stroke-width="3"/>
    <circle cx="22" cy="25" r="6" stroke="#a57916" stroke-width="3"/>
    <circle cx="32" cy="31" r="5" stroke="#a57916" stroke-width="3"/>
    <circle cx="43" cy="25" r="6" stroke="#a57916" stroke-width="3"/>
    <path d="M13 46v-6c0-6 4-10 9-10s9 4 9 10" stroke="#a57916" stroke-width="3"/>
    <path d="M33 40c0-6 4-10 10-10s9 4 9 10v6" stroke="#a57916" stroke-width="3"/>
    <path d="M24 45c2-4 5-6 8-6s6 2 8 6" stroke="#a57916" stroke-width="3"/>
    <path d="M32 55s-9-5-9-12c0-4 3-7 7-7 2 0 3 1 4 2 1-1 3-2 5-2 4 0 7 3 7 7 0 7-10 12-10 12h-4Z" stroke="#a57916" stroke-width="3"/>
  </g>
</svg>
