<svg xmlns="http://www.w3.org/2000/svg" viewBox="0 0 48 48" role="img" aria-label="Instagram">
  <defs>
    <radialGradient id="ig-yellow" cx="10%" cy="98%" r="95%">
      <stop offset="0" stop-color="#FED576"/>
      <stop offset=".28" stop-color="#F47133"/>
      <stop offset=".58" stop-color="#BC3081"/>
      <stop offset="1" stop-color="#4C63D2" stop-opacity="0"/>
    </radialGradient>
    <radialGradient id="ig-blue" cx="92%" cy="12%" r="82%">
      <stop offset="0" stop-color="#5B7CFA"/>
      <stop offset=".38" stop-color="#833AB4"/>
      <stop offset="1" stop-color="#833AB4" stop-opacity="0"/>
    </radialGradient>
    <linearGradient id="ig-base" x1="7" y1="44" x2="42" y2="5" gradientUnits="userSpaceOnUse">
      <stop offset="0" stop-color="#F58529"/>
      <stop offset=".32" stop-color="#DD2A7B"/>
      <stop offset=".62" stop-color="#8134AF"/>
      <stop offset="1" stop-color="#515BD4"/>
    </linearGradient>
  </defs>
  <rect x="4" y="4" width="40" height="40" rx="11.5" fill="url(#ig-base)"/>
  <rect x="4" y="4" width="40" height="40" rx="11.5" fill="url(#ig-yellow)"/>
  <rect x="4" y="4" width="40" height="40" rx="11.5" fill="url(#ig-blue)"/>
  <path fill="#fff" d="M24 14.1c3.23 0 3.61.01 4.89.07 1.18.05 1.82.25 2.25.42.56.22.97.48 1.39.9.43.42.69.83.9 1.39.17.43.37 1.07.42 2.25.06 1.28.07 1.66.07 4.89 0 3.22-.01 3.6-.07 4.88-.05 1.18-.25 1.82-.42 2.25-.21.56-.47.97-.9 1.39-.42.43-.83.69-1.39.9-.43.17-1.07.37-2.25.42-1.28.06-1.66.07-4.89.07-3.22 0-3.6-.01-4.88-.07-1.18-.05-1.82-.25-2.25-.42-.56-.21-.97-.47-1.39-.9-.43-.42-.69-.83-.9-1.39-.17-.43-.37-1.07-.42-2.25-.06-1.28-.07-1.66-.07-4.88 0-3.23.01-3.61.07-4.89.05-1.18.25-1.82.42-2.25.21-.56.47-.97.9-1.39.42-.42.83-.68 1.39-.9.43-.17 1.07-.37 2.25-.42 1.28-.06 1.66-.07 4.88-.07Zm0-2.18c-3.28 0-3.69.01-4.98.07-1.29.06-2.17.26-2.94.56a5.92 5.92 0 0 0-2.14 1.39 5.92 5.92 0 0 0-1.39 2.14c-.3.77-.5 1.65-.56 2.94-.06 1.29-.07 1.7-.07 4.98 0 3.27.01 3.68.07 4.97.06 1.29.26 2.17.56 2.94.31.8.72 1.48 1.39 2.14.66.67 1.34 1.08 2.14 1.39.77.3 1.65.5 2.94.56 1.29.06 1.7.07 4.98.07 3.27 0 3.68-.01 4.97-.07 1.29-.06 2.17-.26 2.94-.56.8-.31 1.48-.72 2.14-1.39.67-.66 1.08-1.34 1.39-2.14.3-.77.5-1.65.56-2.94.06-1.29.07-1.7.07-4.97 0-3.28-.01-3.69-.07-4.98-.06-1.29-.26-2.17-.56-2.94a5.92 5.92 0 0 0-1.39-2.14 5.92 5.92 0 0 0-2.14-1.39c-.77-.3-1.65-.5-2.94-.56-1.29-.06-1.7-.07-4.97-.07Z"/>
  <path fill="#fff" d="M24 17.8a6.2 6.2 0 1 0 0 12.4 6.2 6.2 0 0 0 0-12.4Zm0 10.22a4.02 4.02 0 1 1 0-8.04 4.02 4.02 0 0 1 0 8.04Z"/>
  <circle cx="30.45" cy="17.55" r="1.45" fill="#fff"/>
</svg>
