<svg xmlns="http://www.w3.org/2000/svg" viewBox="0 0 64 64" fill="none" aria-hidden="true">
  <g stroke-linecap="round" stroke-linejoin="round">
    <path d="M10 32c3-12 12-20 22-20s19 8 22 20H10Z" stroke="#a57916" stroke-width="3.2"/>
    <path d="M20 32c2-8 6-15 12-20M44 32c-2-8-6-15-12-20M32 12v35c0 4 3 7 7 7 3 0 6-2 6-5" stroke="#a57916" stroke-width="2.8"/>
    <path d="M44 39 54 42v8c0 5-4 9-10 11-6-2-10-6-10-11v-8l10-3Z" stroke="#2f6f24" stroke-width="2.8"/>
    <path d="m40 49 3 3 6-7" stroke="#2f6f24" stroke-width="2.8"/>
  </g>
</svg>
