<svg xmlns="http://www.w3.org/2000/svg" viewBox="0 0 64 64" width="64" height="64" fill="none" aria-hidden="true">
  <defs>
    <linearGradient id="goldLine" x1="8" y1="8" x2="56" y2="56" gradientUnits="userSpaceOnUse">
      <stop offset="0" stop-color="#8d5b02"/>
      <stop offset="0.38" stop-color="#e7a724"/>
      <stop offset="0.72" stop-color="#b77806"/>
      <stop offset="1" stop-color="#f4cb6b"/>
    </linearGradient>
    <filter id="softShadow" x="-30%" y="-30%" width="160%" height="160%" color-interpolation-filters="sRGB">
      <feDropShadow dx="0" dy="1.2" stdDeviation="1.1" flood-color="#4b2b00" flood-opacity="0.28"/>
    </filter>
  </defs>
  <g filter="url(#softShadow)" stroke="url(#goldLine)" stroke-width="3.6" stroke-linecap="round" stroke-linejoin="round">
    <path d="M32 8l4.8 14.2L51 27l-14.2 4.8L32 46l-4.8-14.2L13 27l14.2-4.8L32 8z"/><path d="M50 43l2.2 6.2L58 51l-5.8 2L50 59l-2.1-6-5.9-2 5.9-1.8L50 43z"/><path d="M13 40l1.6 4.4L19 46l-4.4 1.6L13 52l-1.6-4.4L7 46l4.4-1.6L13 40z"/>
  </g>
</svg>
